<?xml version="1.0" encoding="utf-8"?>
<!-- Generator: Adobe Illustrator 15.0.2, SVG Export Plug-In . SVG Version: 6.00 Build 0)  -->
<!DOCTYPE svg PUBLIC "-//W3C//DTD SVG 1.1//EN" "http://www.w3.org/Graphics/SVG/1.1/DTD/svg11.dtd">
<svg version="1.1" id="Layer_1" xmlns="http://www.w3.org/2000/svg" xmlns:xlink="http://www.w3.org/1999/xlink" x="0px" y="0px"
	 width="989.031px" height="1454.5px" viewBox="0 0 989.031 1454.5" enable-background="new 0 0 989.031 1454.5"
	 xml:space="preserve">
<g id="Layer_1_1_">
	<path fill="#333333" d="M635.43,485.227c0.613-6.468,1.938-12.97,2.354-19.438c0.262-4.03,0.527-8.015,0.439-12.056
		c-0.059-2.316-0.105-2.53,1.432-4.244c1.205-1.342,1.922-2.463,2.775-4.062c2.033-3.813,2.59-6.872,2.791-11.141
		c0.18-3.817-0.709-7.422-1.182-11.211c-0.205-1.65-1.641-2.729,0.211-3.419c0.779-0.29,4.066-1.688,4.539-1.04
		c1.988,2.722,5.709,3.313,8.871,4.146c-2.434-3.496,1.914-3.205,2.705-5.97c0.33-1.154-0.043-2.639-1.33-3.276
		c-2.168-1.08-3.936,0.983-4.674,2.695c-1.086,2.516-1.688,0.972-1.664-0.81c0.027-2.143,0.727-2.826,2.045-4.396
		c0.945-1.126,2.049-1.578,3.359-2.267c0.543-0.285,0.559-1.165,1.012-1.543c0.467-0.391,1.34-0.576,1.904-0.814
		c-0.537-0.993-1.266-1.569-0.605-2.534c0.598-0.869,0.441-1.682,0.455-2.731c-2.389,0.1-3.984,0.155-6.156,1.109
		c-0.563,0.248-0.645,2.499-0.756,3.07c-0.293,1.506-0.479,1.785-1.594,2.875c0.021-1.93,1.002-7.754,0.049-9.369
		c-0.879-1.494-2.449-3.375-2.055-5.181c0.439-2.021,0.744-3.512,2.035-5.085c2.521-3.073,5.131-3.251,8.941-3.2
		c1.939,0.021,2.549-0.012,3.652-1.5c1.004-1.354,1.969-2.689,2.877-4.105c-1.246,0.575-2.813,1.021-3.928,1.813
		c-1.559,1.104-1.256,1.722-3.346,1.591c-2.436-0.151-2.508-0.121-3.775-2.241c-0.932-1.553-1.209-3.188-1.742-4.903
		c-0.969-3.108-1.77-6.221-2.545-9.39c-0.65-2.658-0.305-5.534-0.846-8.215c-0.705-3.505-1.145-5.772-3.064-8.729
		c-0.729-1.121-2.344-2.771-2.648-4.083c-0.145-0.628,0.141-3.498,0.605-3.906c1.164-1.009,2.324-2.021,3.48-3.032
		c0.732-0.646,2.23,0.902,3.361,1.062c1.348,0.188,2.002,0.691,2.82-0.346c0.734-0.937,2.621-3.902,3.314-3.502
		c-0.479-0.799-1.094-2.701-2.068-2.798c-1.475-0.146-2.943-0.292-4.414-0.438c0.502-0.976,1.006-1.953,1.508-2.929
		c-1.33,1.103-2.727,2.729-4.252,3.527c-0.867,0.45-2.039,0.615-2.975,0.898c-1.338,0.404-1.146,0.128-1.84-1.103
		c-1.789-3.183-3.73-6.282-5.389-9.536c-3.84-7.555-7.322-15.351-9.393-23.55c2.027,0.157,4.379,3.354,5.816,4.95
		c1.066,1.188,1.752,2.678,2.887,3.771c0.908,0.877,2.188,1.553,2.814,2.656c0.646,1.135,1.154,2.031,1.475,3.285
		c0.527,2.086,1.207,2.657,2.771,4.266c0.992,1.018-0.42-5.478-0.668-6.178c-0.836-2.358,1.756-3.798,3.352-5.51
		c1.709-1.834,2.795-3.083,5.289-3.162c1.557-0.05,2.154,0.025,3.072-1.167c1.201-1.563,1.252-1.518,3.242-1.491
		c1.229,0.015,2.479,0.244,3.703,0.375c1.367,0.146,2.115-0.618,3.285-1.343c-1.4-0.089-2.807-0.176-4.205-0.264
		c0.008,0.021,0.168,0.023,0.188,0.01c-0.988,0.644-9.648-2.729-5.197-3.438c-1.428-2.346-0.957-0.854-3.102-0.881
		c-2-0.024-3.354-0.175-4.229-2.367c-0.676-1.688,0.418-2.905,1.23-4.265c0.484-0.811,4.01-0.146,4.715-0.084
		c-0.451-2.928-0.539-2.54-3.508-2.726c-1.938-0.121-3.879-0.102-5.814-0.126c-3.59-0.044-6.467,2.661-8.877,5.016
		c-1.875,1.828-7.209,5.406-9.939,3.723c-2.338-1.441-2.617-1.505-3.193-4.123c-0.41-1.871-0.809-3.71-1.369-5.539
		c-2.381-7.694-4.721-14.924-8.717-21.939c-3.555-6.231-6.734-13.113-11.104-18.814c-1.398-1.824-5.805-5.995-6.049-8.318
		c-0.324-3.071-1.1-7.198,2.279-8.886c-0.029,2.431,0.107,4.789,1.389,6.964c0.299-1.674,1.252-7.896,3.85-4.898
		c1.512,1.741,1.742,4.22,2.869,6.244c0.545,0.977,1.455,1.632,1.439,2.778c-0.029,2.494-0.08,1.156,1.66,1.893
		c3.07,1.296,3.537,3.396,3.502,6.357c0.438-0.188,1.021-0.039,1.477-0.193c-0.006,0.511-0.311,2.469,0.188,2.573
		c1.172,0.249,1.816,0.353,2.738,1.076c1.645,1.297,3.311,2.558,4.98,3.816c-0.582-1.323-2.242-2.979-2.34-4.213
		c-0.16-2.049-2.684-2.797,0.92-2.753c0.605,0.009,0.639-1.214-0.092-1.396c-0.512-0.127-3.057-0.464-2.977-0.978
		c0.332-2.138,2.871-1.451,4.83-1.604c-0.688-0.321-1.953-0.618-2.41-1.222c-0.414-0.543-0.824-1.087-1.234-1.63
		c-0.309-0.405,0.715-0.779,0.748-1.185c0.195-2.429-1.418-4.535-1.393-6.772c0.029-2.371,1.809-3.697,1.396-6.372
		c-0.113-0.742,0.799-2.438,0.994-3.274c0.209-0.891-1.641-0.606-0.35-2.307c-1.848-0.817-3.105-1.453-4.6-2.792
		c0.68,1.116,0.877,2.364,1.172,3.616c0.385,1.614-1.58,1.221-2.492,1.209c0.295,1.074,0.094,2.075-0.039,3.156
		c-2.805-0.63-4.584-2.879-6.043-5.126c-0.012,0.955,0.188,3.115-1.098,3.565c-1.729,0.604-2.342-1.514-2.643-2.549
		c-0.324-1.142,0.051-2.393,0.389-3.475c0.426-1.357,0.137-2.462,0.689-3.89c2.236,1.463,3.555,3.202,6.244,3.234
		c0.594,0.007,0.617-0.847,1.096-1.039c0.445-0.179,0.996-0.106,1.465-0.242c1.09-0.318,0.639-1.22,1.316-1.741
		c0.52-0.398,1.037,0.129,1.465-0.289c0.979-0.955,2.57-0.082,3.369-0.793c1.068-0.951-0.006-1.86,1.613-2.717
		c0.885-0.469,3.523-1.113,3.488-2.237c-0.051-1.554-1.604-2.237-2.688-3.016c-0.182,0.842-0.357,1.684-0.537,2.525
		c-0.225,1.05-1.021,0.838-1.828,1.446c-1.814,1.364-1.414,2.088-3.814,2.059c0.158-1.612,0.318-3.224,0.48-4.835
		c-0.605,1.635-1.227,3.231-1.953,4.817c-0.271-0.705-0.545-1.41-0.814-2.115c0.086,0.509,0.662,2.175,0.193,2.427
		c-0.975,0.526-1.609,0.684-2.029,1.698c-0.309,0.737-1.609,1.2-2.271,1.61c-0.447,0.278-1.295-1.397-1.766-1.678
		c-0.473-0.283-2.174-0.935-2.367-1.421c-0.105-0.256,0.65-2.769,0.877-2.936c1.803-1.34,2.6,2.097,4.623,0.688
		c-1.006-1.924-1.557-2.417-0.854-4.444c-0.189,0.547,3.486-0.714,3.865-0.992c1.73-1.269,1.5-2.234,1.525-4.239
		c0.027-2.361,1.883-1.654,3.385-1.384c-0.705-1.9-0.396-2.973-2.445-2.233c0.139-0.051-2.434-2.899-2.959-3.306
		c0.145,3.507,0.127,6.646-0.545,10.098c-1.063-0.394-2.361-1.256-3.479-0.928c-2.225,0.654-2.139,0.723-3.654-1.053
		c0.771,0.01,1.543,0.019,2.314,0.029c-0.232-2.663-0.553-2.096-3.188-2.008c-1.922,0.063-3.521-0.23-3.496-2.385
		c0.016-1.134,3.299-2.631,2.361-3.66c-0.271-0.295-2.342-0.029-2.785-0.034c-0.434-0.005-0.857,1.682-1.027,2.093
		c-0.271-0.469-0.768-0.808-1.039-1.275c-1.539,2.142-2.328,4.803-0.557,7.23c1.289,1.763,1.621,2.084,3.684,2.745
		c1.234,0.397,2.457,0.839,3.686,1.265c-0.893,0.992-2.896,3.625-4.355,3.15c-2.623-0.856-3.316-1.613-5.324-3.479
		c-1.68-1.563-3.191-2.548-4.402-4.506c-0.352-0.564-1.244-2.171-1.828-2.306c-0.771-0.179-2.631,0.982-3.459,1.166
		c-0.584,0.13-4.008-3.466-4.689-4.026c-1.689-1.386-2.133-3.3-3.227-5.173c-2.156-3.697-3.924-7.612-6.068-11.337
		c-2.725,0.827-1.281,5.551-0.514,7.362c1.307,3.066,3.316,5.017,5.699,7.214c1.938,1.789,3.443,4.099,5.188,6.086
		c1.58,1.799,5.467,4.88,3.387,7.293c2.857,0.035,3.65,0.893,5.492,3.049c1.645,1.923,2.355,2.502,0.102,4.387
		c1.514,0.78,3.453,1.35,3.961,3.206c0.125,0.454,0.188,4.913-0.189,5.122c-3.814,2.121-6.514,1.953-10.766,1.9
		c-2.939-0.035-2.965-7.705-3.305-9.821c-0.568-3.521-3.105-7.271-4.781-10.401c-3.625-6.762-8.383-12.857-12.875-19.042
		c-4.537-6.247-8.697-12.755-13.258-18.995c-4.08-5.579-8.408-10.969-12.555-16.497c-2.484-3.313-5.188-6.546-7.484-9.992
		c-2.049-3.075-3.863-6.411-6.352-9.142c-0.4-0.439-1.459-1.205-1.451-1.838c0.014-1.007,1.711-4.427,0.957-5.115
		c-1.563-1.422,8.047-0.403,6.813-2.127c-0.105-0.15-0.492-4.936-2.777-5.086c-1.746-0.116,1.18-1.47-0.455-1.585
		c-0.561-0.039-4.27,1.109-5.547,1.827c-1.25,0.702-2.256-1.947-3.461-1.147c-0.402,0.267,0.342,2.529,0.275,3.161
		c-0.072,0.715-0.922-0.169-0.779,0.618c0.234,1.296,1.063,3.83,1.043,3.807c-0.521-0.714-3.203-3.761-3.732-4.467
		c-0.553-0.734,0.588-1.481,0.025-2.21c-0.693-0.906-4.117-5.155-4.818-6.058c-0.379-0.488,1.842-2.969,1.463-3.457
		c-0.65-0.838-1.316-0.057-1.883-0.97c-0.379-0.608-2.314,1.051-2.689,0.441c-0.461-0.751-0.262-1.195-0.768-1.904
		c-0.395-0.552,1.902-2.323,1.455-2.824c-0.387-0.43-1-0.665-0.934-1.275c0.115-1.009-2.553-0.431-3.268-1.163
		c-1.275-1.309-2.225-3.411-3.594-4.503c-1.416-1.129-2.105-2.557-3.395-3.722c-0.646-0.585-4.463-1.833-2.564-3.516
		c0.457-0.406,1.627-1.896,2.209-1.961c0.639-0.07,1.354,1.068,2.047,1.077c2.086,0.026,4.039,0.038,5.334-2.04
		c0.775-1.248,0.926-3.478,1.43-4.931c0.771-2.227,0.707-3.78,0.625-6.163c-0.135-3.763-2.643-7.477-4.521-10.567
		c-3.889-6.394-7.766-12.584-12.15-18.662c-2.271-3.147-4.394-6.326-6.796-9.376c-0.464-0.588-1.218-1.262-1.533-1.946
		c-0.255-0.551-0.051-1.544-0.479-1.984c-1.453-1.488-2.957-2.927-4.271-4.542c-2.755-3.387-5.552-7.038-9.161-9.433
		c-1.217-0.808-0.867-1.067-2.521-1.272c-0.642-0.079-1.395-1.712-1.762-2.231c-0.481-0.682-0.529-1.888-1.114-2.457
		c-0.604-0.587-2.332-0.809-3.146-1.09c2.271-1.475,2.284-2.6,3.011-5.227c2.859,0.949,5.794,2.08,8.813,2.422
		c2.044,0.233,3.727-0.292,5.613-0.996c0.988-0.369,1.281-3.366,1.95-3.324c3.445,0.215,6.848,0.565,10.276,0.952
		c0.523,0.059,2.21-2.691,3.076-3.111c1.485-0.719,2.876,0.892,4.188,1.735c-3.443,0.646-3.813,2.237-4.06,5.49
		c-0.094,1.256-0.578,2.565-0.867,3.792c-0.293,1.242,0.717,2.291-0.486,3.071c-0.994,0.645,0.635,5.827,0.717,7.482
		c0.131,2.601,0.826,5.055,2.142,7.259c1.676,2.81,2.99,4.878,5.348,7.118c1.844,1.755,3.773,2.952,5.254,5.146
		c0.787,1.165,1.529,2.346,2.271,3.54c0.596,0.962-1.799,1.844-2.375,1.252c-1.076-1.103-1.217-2.389-2.121-3.451
		c-0.814-0.957-2.396-1.602-3.338-2.567c0.828,1.833,1.691,3.545,2.674,5.295c1.137,2.03,2.234,2.132,4.604,2.161
		c-0.428,2.007-0.336,2.892,1.742,3.831c1.742,0.788,3.531,1.729,5.395,2.217c1.904,0.501,3.742,1.063,2.645,3.335
		c-0.27,0.556-1.01,1.497-1.496,1.876c-1.25,0.975-1.535-0.242-1.357,1.769c0.182,2.073,0.299,3.902,2.58,3.929
		c0.916,0.012,1.324-0.267,2.088-0.816c0.34-0.245,0.305-1.012,0.646-1.255c0.361-0.258,1.395,0.128,1.688-0.189
		c1.479-1.607-0.094-4.456-0.75-6.009c-0.777-1.842-1.455-2.949-1.432-4.964c2.105,0.487,5.289-0.292,6.965-1.599
		c1.707-1.331,1.623-4.959,2.191-7.13c1.771,0.409,1.328,5.121,2.23,5.133c1.65,0.02,2.141-0.226,3.145,1.061
		c0.656,0.84,1.258,1.672,0.648,2.617c-0.686,1.067-1.764,0.332-2.775,1.07c-1.008,0.738-2.199,0.521-3.438,0.565
		c-2.5,0.088-1.678,3.742-1.404,5.2c1.031,5.501,5.293,6.935,10.299,7.223c2.818,0.163,3.836-0.734,4.045-3.381
		c0.18-2.254,1.711-3.401,2.291-5.673c1.732,1.396,2.311,1.342,1.693,3.494c1.307,0.125,2.299,0.119,3.594-0.082
		c0.395-0.06,2.602,2.311,3.232,2.701c1.029,0.636,1.787-1.769,3.098-0.762c1.236,0.951,1.904,2.547,2.719,3.862
		c0.334,0.537,2.59,0.217,3.363,0.652c1.322,0.742,2.385,0.663,3.883,0.582c1.143-0.062,2.799-0.363,3.867-0.032
		c1.563,0.485,2.041,1.604,3.771,1.625c1.037,0.013,3.146,0.005,3.938,0.68c1.09,0.923,1.068,3.002,1.055,4.252
		c-0.039,3.188,1.684,5.363,4.5,6.34c2.652,0.919,5.275-0.563,7.881,0.214c1.439,0.43,5.322,3.675,5.477,5.212
		c-0.883,0.238-1.748,0.321-2.652,0.386c-1.16,0.083-1.428,1.433-1.959,2.399c-1.715-0.618-0.43-1.598-1.205-2.535
		c-0.482-0.588-0.971-1.177-1.457-1.766c-0.391-0.473-0.508,0.663-0.908,0.113c-1.771-2.422-3.828-0.876-4.92,1.242
		c2.313-1.408,5.168,1.905,5.797,3.702c-2.867-0.737-4.531-0.183-6.496,1.973c1.408-0.543,6.313-1.653,7.354,0.084
		c1.342,2.24,3.303,4.272,0.623,6.013c1.395,0.806,2.582,1.519,3.768,2.599c0.605,0.55,0.02,3.413-0.063,4.235
		c0.906,0.063,1.938,0.286,2.84,0.193c1.004-0.104,1.834-0.9,2.697-1.073c2.293-0.46,3.764,0.022,5.35,1.487
		c1.168-1.829-2.848-3.825-4.373-3.843c-1.135-0.014-2.271-0.028-3.404-0.042c-1.664-0.021-1.398-0.317-1.777-1.917
		c1.389,0.365,3.17,0.486,1.154-0.809c-0.711-0.456-1.324-2.936-1.73-3.777c1.525,0.26,3.004,2.148,4.539,2.828
		c1.92,0.851,2.883,1.041,4.893,0.603c-0.635-0.941-2.15-2.263-0.594-3.165c0.727-0.419,3.271,0.325,4.1,0.524
		c-1.43-3.25,1.094-3.166,3.828-3.268c-0.041-0.641-0.229-1.422-0.135-2.054c0.268-0.05,0.529-0.099,0.793-0.148
		c0.072-0.435-0.08-1.03-0.113-1.467c-0.018-0.201,3.197-0.624,3.779-1.33c0.203,0.582,0.406,1.163,0.609,1.744
		c-2.08,0.492-2.922,0.421-3.314,2.604c-0.301,1.673-1.203,2.953,0.551,4.151c-2.713,0.295-1.639,2.616-0.814,4.305
		c1.262,2.605,2.553,3.736,5.283,4.75c-1.154,2.174-3.586,0.702-5.365-0.066c0.617,1.209,1.111,2.543,2.023,3.557
		c1.422,1.577,1.229,2.323,1.98,4.228c0.729,1.828,2.164,2.484,3.436,3.813c0.854,0.893,2.57,0.231,3.629-0.254
		c0.574,2.645,2.172,4.4,3.072,6.827c0.945,2.54-0.604,4.349,0.971,6.859c0.537,0.862,1.479,0.749,2.477,0.761
		c1.475,0.018,1.902,0.771,2.438,2.24c0.859,2.38,0.566,5.112,0.537,7.585c-3.588-1.348-3.027,2.514-3.063,4.976
		c-0.01,0.893,1.293,2.345,1.539,3.399c0.438,1.885-0.73,2.045-2.25,3.157c0.52-0.188,4.854-1.161,4.842-0.007
		c-0.018,1.575-0.039,3.149-0.059,4.724c-0.041,3.438,1.496,5.185,3.482,7.804c-1.975,1.442-2.896,1.161-5.354,0.994
		c-0.521-0.035-0.406-2.147-0.732-2.542c-0.479-0.59-2.014-0.961-2.719-1.296c-0.025,2.079-0.172,2.76-1.236,4.536
		c-0.713,1.184-1.646,2.544-1.893,3.903c-0.693,3.862-0.227,6.356,1.729,9.771c1.271,2.219,2.568,6.377,5.602,6.733
		c2.605,0.307,3.262-0.06,4.4,2.292c0.732,1.513,0.875,3.254,1.574,4.77c2.951,6.366,6.98,12.233,12.51,16.643
		c1.404,1.122,2.777,1.31,4.541,1.748c2.293,0.57,0.191,2.771-0.43,3.68c-0.689,1.005-2.801,0.57-3.652,1.639
		c-1.555,1.949-0.43,2.366,0.961,4.361c-0.059-0.981-0.113-1.966-0.176-2.949c1.068-0.162,1.33,0.654,1.916,1.426
		c0.648,0.854,1.721,1.188,2.664,1.676c1.521,0.782,3.635,0.41,4.834,1.645c-1.58,0.571-2.941,1.228-4.625,1.207
		c-1.764-0.021-3.131,0.694-4.822,0.796c-1.867,0.108-3.666-0.17-3.234,2.475c0.334,2.049,2.133,2.261,3.756,2.783
		c-0.963,2.473-2.213,4.686-3.662,6.9c-0.213-1.747-0.818-10.072-4.107-8.471c0.48,2.414,0.555,5.087,1.23,7.424
		c0.271,0.935,1.438,3.225,1.092,4.145c-0.629,1.665-0.813,2.69-0.834,4.473c-0.018,1.41-0.023,2.522,0.361,3.871
		c0.396,1.39,2.23,1.913,3.439,2.613c0.129,0.072,2.609-1.496,3.084-1.688c1.467-0.589,2.857-0.703,4.436-0.894
		c-0.422,1.117-0.48,2.153-1.615,2.592c-1.195,0.461-2.707,0.131-3.738,0.632c-1.445,0.701-1.873,1.31-2.816,2.625
		c-0.246,0.342-0.98,0.083-1.164,0.353c-0.314,0.451-0.184,1.752-0.24,2.313c0.703-0.062,1.404-0.123,2.107-0.185
		c0.221,2.808,0.232,5.8,0.938,8.541c0.375,1.472,0.533,3.391,1.215,4.748c0.711,1.414,2.244,2.73,3.254,3.96
		c1.193,1.454-1.252,2.629,1.271,2.996c0.588,0.087,4.438,0.36,4.436,0.497c-0.018,1.324,0.303,3.191-1.627,2.572
		c-1.631-0.521-3.246-0.961-4.914-1.367c0.25,0.783,0.5,1.566,0.752,2.35c0.295,0.924,2.285,0.848,2.932,1.506
		c1.613,1.656,1.17,3.469,0.838,5.464c1.168-0.141,3.217,0.244,3.098-1.124c-0.145-1.648-0.689-1.823-1.996-2.862
		c2.227-1.547,2.441-3.717,3.023-6.276c1.082,1.356,1.617,2.088,3.121,2.801c1.926,0.91,1.611,3.402,0.154,4.604
		c2.145-0.059,1.732,0.97,1.859,2.762c0.361-0.908,0.727-1.815,1.086-2.726c0.484,0.498,0.971,0.994,1.453,1.492
		c0.734-1.882,0.396-2.687-0.104-4.668c-0.525-2.074,3.682-1.229,4.266-1.11c1.188,0.24,2.338,0.575,3.484,0.964
		c0.459,0.154,0.033,1.694-0.012,2.143c-0.061,0.568,0.572,0.921,0.604,1.475c0.053,0.994,0.105,1.99,0.162,2.985
		c1.063-0.128,2.318-0.088,3.336-0.442c2.021-0.709,1.99-0.972,3.266,0.771c0.643,0.876,2.547-1.26,3.094-1.26
		c0.707-0.001,2.918,1.282,3.428,1.804c1.334,1.369,4.381,3.542,4.861,5.449c0.688,2.698,0.98,5.454,1.734,8.131
		c0.455,1.628,0.426,2.064-0.031,3.704c-0.43,1.54-0.072,2.621,0.24,4.209c0.486,2.459,0.494,5.167,2.236,7.168
		c1.1,1.264,4.494,3.162,6.225,2.776c1.369-0.305,2.846-0.435,4.063-1.139c2.049-1.186,2.889-1.135,4.848,0.23
		c0.666-1.396,1.027-2.518,2.254-3.446c1.41-1.07,1.992-0.104,3.465,0.779c-0.918-1.615-1.121-3.252-1.918-4.777
		c-0.557-1.064-2.881-4.064-2.791-5.128c0.348-4.146,0.629-7.314-0.416-11.393c-0.502-1.96-0.777-3.782-1.896-5.462
		c-1.166-1.75-2.34-3.493-3.521-5.231c-1.027-1.507-2.287-3.219-2.266-5.113c0.021-1.579-0.016-1.362,1.535-1.409
		c1.18-0.034,2.355-0.067,3.535-0.104c-1.143-0.456-2.992-0.658-3.133-2.146c1.121,0.154,2.242,0.311,3.363,0.464
		c-0.615-0.316-5.15-2.59-2.416-2.557c2.217,0.027,3.178-0.723,5.01-1.913c0.928-0.602,0.072-3.99-1.014-4.354
		c-1.514-0.507-1.762,1.215-2.107,2.213c-0.371,1.077-1.313,1.119-2.355,1.521c0.494-1.885,0.906-3.43,2.41-4.714
		c1.947-1.662-0.646-2.399-1.926-3.546c-1.43-1.283-0.654-3.578-0.273-5.131c0.119-0.499,1.232-1.537,1.189-1.673
		c-0.324-1.011-0.645-2.022-0.971-3.034c2.223-0.132,2.939,0.443,2.969-1.872c-0.004,0.322-2.922-1.164-3.268-1.696
		c-1.857-2.859-5.412-3.099-7.588-5.79c-1.15-1.425-1.434-3.471-1.408-5.272c0.025-2.3-0.064-3.117,2.359-3.768
		c1.896-0.508,2.836-0.31,4.322,0.91c1.689,1.386,1.703,2.061,2.143,4.223c0.133-0.509,0.477-0.971,0.646-1.467
		c1.084,1.27,1.584,1.754,3.129,2.354c-0.324-2.136,0.605-1.677,2.359-1.656c0.291,0.004,1.93,2.454,2.57,2.874
		c1.609,1.054,0.939,1.688,0.521,3.527c-0.311,1.355-0.303,2.172-0.922,3.52c1.354,0.563,4.932,0.66,5.285,2.147
		c0.297,1.259,0.793,2.021,0.02,3.075c-0.811,1.104-0.045,1.842,0.488,3.059c-0.912,0.129-1.826,0.258-2.74,0.388
		c0.77,2.204,1.363,0.771,2.932,1.51c0.523,0.249,2.287,2.188,2.279,2.757c-0.02,1.743-1.127,7.65,2.355,5.721
		c1.479-0.823,1.998-1.62,2.77-3.115c0.492-0.958,2.523-0.875,3.656-1.184c1.422-0.389,2.844-0.782,4.262-1.189
		c1.619-0.464,1.883-1.555,3.17-0.235c0.598,0.61,2.291,1.81,2.494,2.557c0.525,1.934-1.229,1.102-2.299,1.765
		c-1.359,0.846-2.563,1.494-4.057,2.069c-0.934,0.359-0.496,2.717-1.105,3.442c-0.916,1.096-2.416,0.843-3.371,2.237
		c-0.697,1.021-0.031,3.097-0.701,3.816c-1.404,1.521-2.02-0.743-1.713,2.189c0.225,2.094,0.693,2.121,2.486,3.292
		c-0.188-2.897-0.457-5.205,1.354-7.563c1.182,1.137,2.357,2.274,3.537,3.411c0.016-1.122,0.025-2.244,0.041-3.367
		c1.439,0.224,2.625,0.131,3.643,1.175c0.639,0.651,1.271,1.307,1.91,1.957c0.344,0.354-0.566,1.514-0.563,1.981
		c0.02,1.112,1.271,2.708,1.709,3.764c0.672,1.623,1.355,3.159,2.189,4.704c-1.252,0.124-1.912-0.248-1.871,1.072
		c0.035,1.07-0.34,3.245,0.254,4.157c0.893,1.373,1.178,1.49,0.715,2.989c-0.451,1.461-0.904,2.924-1.354,4.385
		c0.895-1.021,2.74-4.343,4.23-2.054c0.828,1.271,0.146,5.533,0.125,7.036c-0.047,3.97-0.098,7.94-0.145,11.909
		c-1.648-1.268-2.416-2.479-3.527-4.253c0.174,3.169,0.482,5.195,3.033,7.337c1.305,1.096,0.447,1.411,0.631,3.022
		c0.131,1.176,0.764,2.468,1.111,3.594c0.762,2.455,1.418,4.875,2.012,7.375c0.58,2.444,0.109,4.336,1.238,6.664
		c2.094,4.313,6.363,7.342,8.104,11.854c0.441,1.146,1.596,2.445,0.295,2.983c-1.256,0.52-2.271-0.79-3.17-1.711
		c-1.963-2.016-3.707-4.271-5.682-6.291c-0.014,1.016-0.188,1.981,0.258,2.901c0.51,1.058,1.654,2.105,0.479,2.738
		c-1.768,0.954-1.939,3.714-1.24,5.654c1.045,2.892,1.428,3.343,3.879,5.129c2.352,1.713,4.219,3.888,6.604,5.608
		c1.623,1.17,4.611,0.88,6.582,0.9c2.334,0.028,4.441-0.56,2.375-3.029c-1.143-1.363-4.398-0.229-6.115-1.017
		c-2.791-1.278-4.432-4.304-5.389-7.013c0.863-0.254,1.729-0.51,2.596-0.765c0.385-0.111,1.287,2.103,2.021,2.294
		c1.953,0.515,2.773,3.139,4.768,3.854c1.623,0.584,3.771,0.825,4.729,2.314c0.688,1.069,1.367,2.171,2.152,3.176
		c1.041,1.325,2.951,1.948,4.209,3.071c3.461,3.097,7.807,4.598,12.121,6.142c1.924,0.686,2.914,0.966,4.938,0.878
		c2.414-0.105,2.781,1.682,4.129,3.646c2.336,3.406,6.486,4.647,10.121,6.521c3.098,1.598,6.393,3.411,9.676,4.563
		c3.641,1.276,7.73,1.784,11.494,2.654c1.578,0.364,3.451,2.086,4.828,2.926c1.52,0.933,2.834,1.506,4.516,2.118
		c0.979,0.356,4.695,1.06,5.201,1.979c0.824,1.503,1.637,4.229,3.162,5.077c2.555,1.415,2.197,1.734,2.305,4.676
		c0.104,3.005,4.162,1.194,4.473-0.676c0.068-0.4-1.701-1.479-0.639-1.994c0.859-0.417,2.988,0.501,3.41-0.707
		c0.43-1.241-0.479-2.589,1.383-2.132c1.506,0.368,2.992,0.979,4.521,1.229c4.48,0.729,8.641-0.521,13.055-1.348
		c7.506-1.406,13.057-6.935,16.852-13.261c0.842-1.396,2.352-4.785,3.813-5.479c0.451-0.214,0.912,0.586,1.686,0.021
		c0.549-0.399,0.977-1.035,1.367-1.572c0.699-0.958,1.234-1.845,1.709-2.917c0.574-1.29,0.756-1.319,0.324-2.44
		c-0.574-1.489,2.391-2.643,3.195-3.479c0.928-0.963,0.357-3.111,1.152-3.809c0.521-0.455,2.617-0.356,3.309-0.455
		c2.295-0.313,4.91-0.626,7.084-1.409c1.098-0.396,3.188-0.899,3.969-1.747c0.779-0.849,1.105-2.893,1.521-3.98
		c3.654,2.09,7.619,0.016,8.053-4.322c0.043-0.429-0.229-2.104,0.229-2.102c0.998,0.012,1.996,0.05,2.994,0.015
		c2.064-0.071,4.109-0.138,6.172-0.11c1.992,0.021,3.889,0.23,5.863,0.479c0.818,0.101,1.646,0.16,2.467,0.239
		c0.871,0.083,1.668-0.921,2.52-1.006c1.633-0.163,3.836,1.104,5.523,1.295c2.141,0.238,3.953,0.733,6.02,1.371
		c-1.264,0.65-4.002,1.352-3.619,3.321c-0.004-0.021,2.58,4.373,2.15,4.265c4.873,1.279,9.469,2.062,13.648,5.103
		c0.914,0.664,4.402,2.771,4.67,3.729c0.4,1.46-2.439,5.357-3.193,6.455c-2.125,3.08-4.039,6.271-6.352,9.22
		c-1.182,1.506-2.594,2.614-4.061,3.853c-0.885,0.748-0.557,4.393-0.461,5.589c0.086,1.084-0.416,1.44-1.088,2.313
		c-0.438,0.566-0.154,2.011-0.162,2.705c-0.021,1.775-2.15,3.373-3.631,4.025c-3.889,1.729-0.299,7.938,0.654,10.715
		c0.162,0.479-2.836,3.043-3.336,3.092c-1.131,0.108-1.693-0.214-1.709,0.979c-0.018,1.179-0.029,2.354-0.045,3.526
		c-0.021,1.85,2.242,0.788,1.443,2.939c-0.453,1.227-1.43,2.586-1.559,3.842c-0.141,1.354-2.209,2.353-1.396,3.75
		c1.045,1.788,1.625,2.229,3.443,3.254c-1.813,1.447-2.313,1.638-2.551,3.938c-0.139,1.331,0.145,3.633-1.234,4.026
		c-1.879,0.539-2.213,2.634-0.027,2.829c0.875,0.079,1.369-0.198,1.355,0.707c-0.004,0.505,0.258,2.127-0.145,2.46
		c-1.346,1.11-2.658,2.198-3.908,3.417c-1.447,1.412-1.004,4.973-1.311,6.92c-0.506,3.213-4.07,5.425-6.861,6.779
		c-2.797,1.354-4.227,5.607-6.836,7.394c-2.205,1.505-3.504,1.51-5.07,3.979c-1.25,1.973-2.189,2.337-3.652,0.404
		c-0.701-0.925-3.01-1.749-4.146-1.805c-2.385-0.117-2.938,0.975-3.875,2.793c-0.615,1.19-1.771,3.361-1.48,4.72
		c0.439,2.063,2.492,1.4,3.982,1.313c-1.119,1.029-3.242,2.306-3.896,3.667c-0.461,0.957-0.922,1.913-1.383,2.869
		c-0.371,0.771,0.166,1.856-0.096,2.659c-0.215,0.648-1.021,0.798-1.172,1.563c-0.193,0.979-0.477,1.969-0.58,2.959
		c-0.207,1.925-0.402,3.849-0.66,5.77c-0.537,4.013-1.404,8.225-1.201,12.295c0.104,2.054-0.01,3.604,2.123,4.568
		c2.27,1.026,3.926,1.421,6.398,1.743c-0.521,2.224-1.34,2.528-3.229,3.878c-1.16,0.83-3.266,2.19-3.475,3.612
		c-0.563,3.833-2.803,6.913-5.922,9.193c-0.9-3.013-2.771-7.593-2.396-10.766c0.186-1.542,1.516-3.349,1.973-4.924
		c0.615-2.112,0.934-4.163,1.26-6.344c0.145-0.994-2.814-0.923-3.811-1.038c-2.479-0.287-4.654-1.172-7.063-1.592
		c-4.27-0.742-8.398-0.822-12.717-0.878c-3.539-0.044-7.117-0.231-10.654-0.105c-3.605,0.128-8.496-0.381-10.996,2.404
		c-2.395,2.672-6.145,3.228-9.188,4.854c-2.727,1.456-6.184,4.764-9.141,5.129c-2.439,0.306-3.646,0.456-5.678,1.776
		c-1.338,0.869-1.922,3.214-2.613,4.619c-0.715,1.455-0.854,3.371-1.494,4.918c-0.566,1.375-2.408,2.74-3.604,3.646
		c-2.229,1.691-4.908,5.015-5.838,7.688c-1.105,3.186-0.857,6.813-0.803,10.229c0.563-0.134,1.125-0.268,1.688-0.396
		c0.201,3.394,0.018,7.347,1.406,10.511c0.643,1.458,0.801,3.196,1.805,4.396c1.607,1.925,2.119,2.281,4.574,2.658
		c1.396,0.215,4.313-0.333,5.318,0.494c1.732,1.424,0.223,3.456-1.074,4.728c-2.656,2.592-3.754,7.153-4.375,10.633
		c-0.189,1.057-0.592,1.964-0.846,2.998c-0.271,1.131,0.121,2.373-0.207,3.471c-0.521,1.743-2.156,2.343-3.141,3.942
		c-1.047,1.706-0.846,3.648-2.977,3.93c-1.541,0.202-2.057,3.961-2.396,5.057c-0.563,1.813-1.461,3.449-2.324,5.128
		c-0.85,1.648-0.801,3.37-0.957,5.146c-0.146,1.641-1.725,3.094-1.738,4.563c-0.012,0.771,0.242,2.07-0.033,2.78
		c-0.352,0.891-1.629,1.475-2.133,2.29c-1.055,1.704-1.529,3.124-2.855,4.771c-0.959,1.188-2.82,1.931-4.268,2.42
		c-1.563,0.53-4.078,1.021-5.264,2.263c-1.344,1.412-1.85,5.05-2.896,6.865c-0.789,1.363-0.771,3.271-1.439,4.755
		c-0.9,1.994-1.559,3.955-2.213,6.047c-0.539,1.717-1.313,2.735-0.924,4.532c0.404,1.858,0.73,3.786-0.566,5.263
		c-1.111,1.269-3.354,0.254-4.871,0.67c-1.557,0.425-3.146,1.793-4.396,2.796c-1.5,1.209-3.258,2.07-3.795,3.945
		c-0.539,1.883-0.734,3.871-2.688,4.493c-3.535,1.131-3.563,6.629-6.705,7.879c-2.639,1.047-2.73,1.225-3.768,3.887
		c-0.621,1.603-2.014,2.884-2.889,4.371c-0.939,1.604-1.93,3.057-3.104,4.503c-1.738,2.147-2.145,2.588-2.35,5.339
		c-0.311,4.135-2.686,5.91-5.104,8.979c-1.193,1.514-1.809,2.659-1.828,4.527c-0.01,0.646-1.363,0.75-1.699,1.229
		c-0.494,0.709-0.074,1.971-0.586,2.717c-1.24,1.813-2.227,3.646-3.225,5.599c-1.15,2.25-2.84,3.823-3.363,6.286
		c-0.441,2.095-0.486,4.572-2.852,4.781c-1.482,0.127-2.387,2.906-3.43,4.068c-1.578,1.76-3.543,1.783-4.324,4.184
		c-0.703,2.162-1.613,3.438-3.104,5.154c-0.578,0.668-1.416,0.723-2.262,0.965c-0.621,0.18-1.082,1.465-1.412,1.998
		c-0.408,0.662-1.715,0.426-2.211,0.971c-0.639,0.699-0.703,3.097-1.143,4.099c-0.855,1.959-2.709,2.375-4.58,3.278
		c-1.584,0.771-3.137,2.271-4.697,3.201c-1.504,0.9-3.188,1.111-4.854,1.646c-1.539,0.494-2.863,2.09-3.863,3.334
		c-1.309,1.625-1.424,2.405-3.402,2.899c-2.002,0.504-3.467,1.23-5.285,2.228c-3.035,1.658-4.281,4.646-6.938,6.865
		c-1.313,1.098-3.227-0.461-4.758-0.199c-2.375,0.397-3.416,1.447-5.115,3.104c-1.771,1.729-9.061,0.104-9.854-2.42
		c-1.387-4.389-0.795-8.896-1.021-13.453c-0.166-3.276-4.324-6.098-6.906-7.506c-1.842-1.002-2.9-1.229-5.018-1.377
		c-0.967-0.063-2.469-0.461-3.301,0.181c-0.926,0.711-1.609,2.1-2.639,2.598c-0.855,0.416-4.146,2.744-4.842,2.506
		c-0.59-0.205-2.238-0.436-2.393-1.072c-0.283-1.197-0.42-1.51-1.273-2.383c-0.936-0.961-2.207-3.992-1.723-5.391
		c0.443-1.285,1.922-2.318,1.938-3.769c0.016-1.117,0.025-2.235,0.041-3.354c0.021-1.828-0.547-2.687-2.217-3.711
		c-0.389-0.24-1.775-1.398-2.066-1.021c-0.584,0.762-0.951,1.4-1.809,1.813c-3.805,1.844-5.5,4.01-5.553,8.268
		c-0.014,1.021,0.014,1.933-0.246,2.914c-0.313,1.187-0.557,0.738-1.691,0.82c-2.051,0.146-3.186-0.188-4.609-1.74
		c-2.777-3.023-3.811-7.938-1.703-11.447c1.781-2.971,6.295-3.217,8.193-6.125c1.057-1.609,2.018-3.264,2.98-4.932
		c0.303-0.523,1.889-0.83,2.428-1.223c1.174-0.851,1.598-2.479,2.746-3.464c0.014,1.22-0.104,2.369-0.254,3.576
		c0.451-0.086,2.086-0.129,2.129-0.598c0.088-1,0.492-2.154-0.104-2.996c-1.518-2.139-1.846-3.031,0.113-4.941
		c1.229-1.194,2.625-1.995,4.105-1.422c1.174,0.453,2.041-0.276,2.459-1.36c0.164-0.427,1.264-3.674,0.842-4.105
		c-0.018-0.014-0.111,0.16-0.1,0.174c0.842-4.932,2.025-10.014,5.773-13.475c1.982-1.832,4.65-3.153,6.035-5.538
		c1.221-2.104,1.76-4.646,2.885-6.83c2.656-5.153,3.973-10.792,6.98-15.781c1.52-2.516,0.764-6.828,1.408-9.797
		c0.541-2.479,1.105-6.024,4.113-3.82c0.963-1.569-0.934-1.896-2.064-2.166c-1.26-0.298-0.99-1.002-1.205-2.265
		c-0.273-1.628,0.455-3.727,0.664-5.369c0.574-4.545,0.83-7.79,0.047-12.271c-0.631-3.604-0.104-7.158-1.152-10.689
		c-1.127-3.797-1.975-7.469-3.539-11.112c-1.426-3.313-3.008-6.405-5.018-9.423c-2.229-3.345-5.014-5.327-7.785-8.172
		c-2.41-2.47-5.146-6.271-8.162-7.823c-3.863-1.989-7.658-2.298-11.941-2.351c-1.563-0.019-3.105,0.336-4.65,0.574
		c1.762-1.42-6.479-4.448-8.041-4.747c-1.668-0.319-4.311-0.286-5.781-1.105c-1.467-0.813-2.256-2.906-3.629-3.901
		c-3.313-2.398-6.604-4.824-9.896-7.251c-1.279-0.944-2.16-3.006-3.057-4.316c-1.041-1.521-2.615-2.732-3.811-4.145
		c-2.188-2.584-4.396-6.199-8.021-7.069c-1.688-0.405-3.432-0.714-5.068-1.288c-2.652-0.929-5.213-0.688-7.857-1.248
		c-3.875-0.825-7.104-2.381-10.678-4.071c-1.791-0.848-3.539-1.707-5.275-2.661c-1.854-1.018-2.996-3.013-4.316-4.636
		c-2.813-3.459-6.521-8.005-6.902-12.593c-0.234-2.863-0.02-5.765,0.014-8.576c0.021-1.907-0.141-6.373,1.43-7.75
		c4.076-3.58,8.354-6.812,11.979-10.852c0.494-0.559,2.021,0.926,2.924,0.046c0.984-0.962,2.078-1.813,3.135-2.696
		c1.025-0.854,1.789-2.066,2.627-3.104c0.432-0.535,2.762-0.262,3.473-0.295c-0.023,0.009-0.25,0.142-0.252,0.146
		c0.205-0.958,3.311-2.66,3.992-3.192c1.084-0.847,2.17-1.689,3.256-2.537c1.541-1.201,4.295-1.709,6.15-2.259
		c-0.357-2.021,7.521-0.987,8.104-0.093c-0.006-0.011-0.283-0.022-0.314-0.021c2.322,0.339,7.521,1.002,9.215-0.947
		c2.219-2.556,3.896-5.508,6.469-7.703c2.32-1.981,5.363-4.084,7.105-6.555C631.49,490.86,633.461,488.045,635.43,485.227"/>
	<path fill="#333333" d="M357.282,1179.662c2.093-9.865,1.909-19.067,0.237-28.953c-0.724-4.262,0.243-9.053,0.824-13.272
		c0.61-4.459,5.131-8.031,4.972-12.217c-0.074-1.972-1.407-4.785-0.979-6.548c0.647-2.653,1.898-3.487,3.548-5.635
		c1.484-1.926,2.438-4.596,4.406-6.113c2.142-1.645,2.757-4.286,5.399-5.248c5.104-1.854,2.074-9.784-0.481-12.932
		c-1.438-1.77-8.713-10.104-7.408-11.893c2.084,3.229,6.595,5.338,9.551,7.678c3.415,2.707,4.479,6.158,5.39,10.188
		c3.673-3.312,8.444-5.308,12.705-7.791c4.443-2.595,8.515-6.353,13.145-8.437c4.574-2.057,8.62-6.467,13.203-8.01
		c3.277-1.104,4.79-2.037,7.404-4.318c1.819-1.59,4.178-2.373,5.937-4.063c-1.688-1.59-3.724-3.095-5.165-4.908
		c-2.276-2.863-3.319-6.037-5.239-9.082c-3.156-5.01-12.591-4.148-13.505-10.088c3.984,2.113,7.976,4.233,11.961,6.36
		c3.307,1.771,8.542,4.529,11.234,7.185c1.937,1.896,3.098,4.688,4.956,6.719c2.528,2.752,2.806,1.707,5.965,0.314
		c1.729-0.763,4.308,0.649,5.438-1.783c0.627-1.351,0.149-5.767-1.827-5.494c0.356-3.439,3.416-6.521,5.167-9.41
		c2.127,2.559,2.791-0.965,4.854-0.781c1.961,0.174,3.993,4.693,6.036,5.336c1.696,0.533,3.601-0.539,5.271-0.354
		c2.604,0.283,3.383,1.838,4.585,3.844c-6.313,1.891-14.957,1.701-19.654,6.287c5.31,0.063,10.479-1.549,15.761-2.07
		c2.42-0.233,4.511-0.879,6.772-1.813c2.203-0.912,3.361-2.664,5.767-3.56c-1.877,2.177-3.854,3.062-2.551,5.744
		c0.702,1.449,4.146,1.111,5.402,3.045c1.792,2.767,9.858,4.277,12.381,2.136c-3.387-1.188-3.619-4.646-4.069-7.752
		c-0.463-3.183,1.175-5.465,1.95-8.482c1.105,0.82,1.396,1.951,1.74,3.195c0.244,0.881-0.869,1.094-0.959,1.862
		c-0.107,0.929,0.664,0.916,0.291,2.109c-0.264,0.838-0.334,1.279-0.344,2.158c-0.031,2.532,3.338,9.313,6.52,5.59
		c1.229-1.436,2.34-2.855,3.693-4.174c0.471-0.461,1.688-0.451,1.99-0.904c0.447-0.678,0.172-1.955,0.453-2.729
		c0.727-1.98,5.232-8.726,0.104-8.627c1.42-1.992,0.682-4.574-1.619-5.183c-2.125-0.559,0.006-3.438-3.32-3.936
		c-2.605-0.392-3.193,2.084-4.875-1.025c-0.83-1.537-4.377-2.838-4.727-0.58c-0.119,0.767-1.495,6.5-2.643,4.404
		c-0.594-1.08,1.085-4.521,0.494-6.203c-0.354-1.021-4.02-2.979-4.232-1.514c-0.313,2.129-0.432,5.678-3.188,5.944
		c1.455-1.756,2.127-3.858,1.339-6.09c-1.524,0.695-3.584,2.244-5.152,2.572c-2.311,0.484-4.009-0.404-4.802,2.359
		c-0.479-0.777-0.964-1.56-1.443-2.334c-0.151,0.84-0.303,1.682-0.453,2.521c-1.688-0.143-0.952-1.653-0.857-3.028
		c0.115-1.701,2.091-1.438,3.62-1.779c1.412-0.316,6.781-1.242,7.322-2.119c0.646-1.049-1.178-1.818-2.096-2.188
		c-1.969-0.78-1.932-1.146-2.678-3.166c-0.929-2.493-1.416-5.207-2-7.799c-1.438-6.383-1.864-11.733-0.976-18.225
		c0.351-2.543,0.147-5.377,1.194-7.738c1.756-3.963,1.172-4.051-2.69-5.729c1.672,0.02,4.513,0.733,5.289-0.861
		c1.04-2.141,2.39-4.635,0.7-6.854c1.757,1.477,3.765,2.846,6.093,0.918c0.952-0.787,0.757-3.015,1.73-3.771
		c0.724-0.559,2.464-0.574,3.409-0.916c2.353-0.848,5.153-1.672,7.188-3.125c0.824-0.588,2.227-2.115,3.262-2.104
		c0.725,0.012,3.742,0.465,3.994-0.207c2.188-5.787,4.922-7.832,10.908-9.314c3.139-0.777,2.867-4.441,4.563-6.869
		c1.865-2.67,2.256-3.523,3.238-6.697c0.928-2.977,1.881-4.047,4.275-5.881c1.055-0.809,2.059-7.604,2.697-9.326
		c2-5.375,4.234-10.604,6.602-15.836c0.762-1.68,2.439,0.182,1.465-2.24c-0.635-1.58-0.207-2.063,0.412-3.688
		c0.875-2.287,0.988-5.221,2.531-7.156c1.307-1.637,4.223-4.563,6.201-5.359c2.139-0.86,5.049,1.105,7.348,1.668
		c0.699-1.713-0.064-2.44-1.109-3.618c-1.027-1.162-0.66-2.063-0.566-3.632c0.1-1.729,0.176-1.897,1.35-3.168
		c0.945-1.024,2.902-0.682,3.631-1.539c0.262-0.311,0.248-3.432,0.322-3.938c0.221-1.514,1.178-1.603,2.49-2.234
		c1.652-0.807,0.475-1.479,1.506-2.612c0.963-1.063,2.543-1.859,3.82-2.479c2.395-1.161,2.375-4.709,4.482-5.313
		c3.957-1.138,1.514-3.189,1.549-6.222c0.057-4.385,2.756-11.354,6.225-14.242c4.779-3.987,9.916-8.737,12.854-14.229
		c1.377-2.568,2.389-3.912,3.127-6.834c0.23-0.91,1.479-2.191,2.354-2.52c0.492-0.187,4.176-2.134,1.492-2.662
		c-3.232-0.643-4.271-0.906-6.514-3.354c-2.705-2.953-2.357-5.35-2.545-9.256c-0.07-1.455,0.012-5.566-1.223-6.512
		c-1.697-1.295-2.934-1.795-3.861-3.82c-0.572-1.244-2.4-1.436-3.145-2.553c-3.023-4.535-1.848-8.248-0.791-13.365
		c0.352,0.332,0.918,0.455,1.254,0.809c-0.855-3.229,6.637-15.055,9.113-9.521c-1.137,0.949-5.176,3.146-4.158,4.527
		c0.996,1.36,3.77-0.854,4.949-1.771c0.758-0.586,1.816-0.834,2.697-1.182c1.395-0.556,0.855-1.996,1.418-2.783
		c1.504-2.104,4.143-2.754,4.174-5.613c0.018-1.229,2.336-3.838,3.354-4.41c1.541-0.875,4.705-0.098,4.836-2.03
		c0.303-4.478,2.082-7.793,1.516-12.244c-0.859,1.307-1.795,2.959-3.232,3.686c-0.502,0.252-4.494,1.205-4.727,1.589
		c-1.482,2.442,4.332,2.827,5.357,0.854c0.063,3.821-2.91,3.354-5.563,4.756c-1.689,0.896-2.449,2.658-4.172,3.492
		c-1.93,0.938,0.613,3.211-1.627,3.928c-1.893,0.604-2.479,1.115-4.592,1.24c-2.596,0.153-1.137-0.927-3.375-1.595
		c-2.002-0.602-5.229,4.314-5.934,0.976c-0.646,0.801-2.475,3.274-3.52,3.431c-0.914,0.136-4.182-1.438-5.244-1.702
		c-0.957-0.235-2.816,2.769-4.229,1.743c-1.688-1.222,2.289-2.593,3.055-2.724c1.789-0.302,2.723-1.379,4.033-2.396
		c0.674-0.526,3.23,1.226,3.479-0.354c0.291-1.865,1.83-0.519,3.094-0.986c1.631-0.605,1.865-3.066,3.797-0.74
		c0.021-0.531,0.455-1.043,0.492-1.574c1.98,1.563,1.934-0.885,3.184-2.014c0.584,0.688,1.436,1.195,2.35,1.447
		c0.188-1.494,1.111-5.103-0.732-5.896c-3.324-1.436-1.826-2.674-0.865-5.174c0.279,0.875,1.781,6.928,3.732,4.547
		c0.545-0.662-0.104-0.647-0.604-1.291c-1.166-1.494,0.531-0.549,0.785-0.686c0.332-0.174,1.496,0.127,1.863,0.156
		c0.787,0.065,0.229-1.021,0.521-1.547c0.236-0.423-0.426-0.906-0.061-1.5c0.441-0.722,1.043-1.334,1.594-1.978
		c0.979-1.147,0.598-2.854,1.238-3.754c0.559-0.779,3.004-1.588,3.045-2.158c0.143-1.949,0.514-3.896,0.525-5.852
		c-2.426,2.145-0.705,4.746-3.447,6.246c-0.979,0.532-2.479,0.864-3.277,1.565c-0.805,0.704-1.084,2.935-2.104,2.717
		c-0.773-0.166-4.137-0.688-3.74-2.313c0.355-1.478,2.787-0.729,2.629-1.938c-0.381-2.928,3.619-2.914,1.895-6.373
		c-0.746,1.271-2.061,4.729-4.309,3.734c-2.268-0.996,0.432-4.666-2.635-4.139c1.434,1.518,0.143,4.229-0.074,6.158
		c-0.959-1.268-1.707-2.837-3.275-3.355c-0.129,2-0.258,3.996-0.389,5.996c-0.99-1.975-2.523-3.758-1.979-5.945
		c0.482-1.949,0.74-3.901,0.859-5.908c-4.107,0.72-2.629,3.308-3.082,6.752c-4.113-0.27-2.432-0.981-3.258-4.618
		c-0.01,1.653-1.096,2.065-2.479,2.521c-1.313,0.438-0.938,1.479-1.529,2.479c-0.41,0.69-2.439,2.026-1.285,2.913
		c0.771,0.595,2.084,1.742,3.063,1.365c1.387-0.535,3.381-3.809,5.146-2.146c3.146,2.975-2.563,3.737-3.492,4.703
		c0.15-0.158,3.121,4.854,3.682,5.563c-1.242-0.861-2.826-2.547-3.908-0.669c-0.436,0.755-0.586,3.013-1.783,2.622
		c-0.578-0.188-1.352,0.055-1.91,0.32c0.297-2.299,0.229-4.72,1.975-6.447c-1.389,0.324-4.43,0.609-4.451,2.447
		c-0.008,0.705,0.199,1.146-0.387,1.526c-1.041,0.675-0.486,1.556-0.602,1.64c-1.391,1.055-3.758,0.142-3.977,2.164
		c-0.084,0.807,1.393,2.536,1.375,3.789c-0.016,1.268,5.959,0.067,7.107-0.056c1.646-0.178,1.828,1.049,2.848-1.178
		c0.516-1.109,2.572-1.291,3.65-1.111c-0.295,0.5-0.199,1.229-0.494,1.73c2.197,0.082,4.314-0.222,6.48-0.558
		c-2.83,2.763-6.521,3.42-10.471,4.201c-1.439,0.284-13.063,1.064-8.098,3.414c-1.707,1.164-5.723,1.234-6.559,2.654
		c1.207,0.416,2.252,1.264,2.918,2.354c-3.639-0.045-7.072-0.955-10.725-1.183c2.182-0.438,3.652-1.468,5.506-2.673
		c0.555-0.355,2.475-0.363,3.26-0.67c0.799-0.31,1.012-2.178,1.26-2.926c0.465-1.402,1.486-4.834,0.021-6.031
		c-1.393-1.137-5.102,0.098-5.705,1.613c0.012-0.654-0.359-3.811,0.314-4.021c1.199-0.373,3.092,0.704,3.531-0.563
		c0.617-1.778,2.307,0.623,2.338-1.851c0.004-0.334,2.398-0.909,2.969-1.875c-2.594-1.489-0.506-2.53,1.32-2.511
		c1.336,0.018,1.359-2.31,3.789-2.06c-2.383-0.715-8.1-2.5-10.129-0.517c-2.414,2.356-2.32,5.892-6.564,5.573
		c2.314-2.26,2.359-3.564,2.398-6.793c0.01-0.834,0.5-1.026,1.109-1.623c0.889-0.867-0.59-0.785-0.23-1.438
		c0.689-1.264,1.076-1.955,2.764-2.281c0.449,5.49,6.398-0.519,8.865-1.784c-0.77-0.5-1.533-1-2.299-1.502
		c1.813-1.089,6.496-0.591,4.045-3.738c1.607,0.434,2.404-0.303,1.707-1.875c1.918-0.387,3.891,4.108,3.688-0.271
		c-0.055-1.188-1.73-3.37-3.27-2.528c-1.75,0.953-5.516,2.405-5.734,4.726c-0.311,3.228-2.086,3.3-5.066,3.634
		c0.141-1.754,0.307-3.496,0.275-5.259c-1.854,1.136-2.109,4.267-3.521,4.95c-2.201,1.065-4.457,1.664-6.422,3.104
		c-2.572,1.881-3.756,1.078-4.203,4.528c-0.426,3.271,2.867,1.03,3.893-0.077c2.854,2.109-2.051,3.32-3.33,4.086
		c-0.787,0.474-4.178,4.577-4.385,2.484c-0.148-1.521,0.238-5.063-1.982-5.428c-1.465-0.238-6.744,4.942-6.752,5.627
		c0.031-0.156,0.088-0.306,0.162-0.444c-1.545,1.509-1.639,3.474-3.006,4.808c-1.369,1.336-6.039,4.289-4.84-0.063
		c-2.365,1.923-5.533,3.527-7.656,5.602c-1.705,1.666-1.467,3.563-2.809,5.063c-3.123,3.479-8.061,3.893-8.305,9.106
		c-4.244-0.762-7.563-3.558-10.867-6.235c1.057-0.479,2.113-0.959,3.176-1.438c-2.145-3.102-4.17-6.188-6.105-9.416
		c-1.793-3-2.141-7.026-2.748-10.445c-0.707-3.977-1.232-6.607,1.021-10.028c1.43-2.163,1.088-3.963,1.115-6.396
		c0.029-2.504,1.111-4.957,1.146-7.563c-1.719,0.551-3.285,0.928-5.064,1.201c1.248-2.424,1.309-3.761,1.342-6.512
		c0.025-2.234-2.69-3.345-4.615-2.006c-3.898,2.716-6.597,4.026-11.417,2.521c-4.028-1.265-6.511-5.284-9.346-8.188
		c-0.467-0.479-2.603-1.566-2.709-2.141c-0.145-0.719,1.274-1.526,0.997-2.313c-0.797-2.244-1.399-4.185-1.731-6.536
		c2.656,0.815,2.137-5.575,2.83-7.543c1.288-3.652,2.929-5.914,6.81-6.021c3.814-0.104,7.037,0.29,10.728,1.14
		c2.174,0.499,6.916,4.313,8.383,2.884c3.02-2.943-4.672-4.856-6.249-5.549c-3.313-1.455-5.64-2.323-9.466-1.636
		c-5.091,0.914-18.49-1.159-19.852,6.119c0.561,0.008,2.797-0.313,3.156,0.038c0.167,0.163,0.125,3.172-0.041,3.365
		c-1.99,2.353-4.821-1.587-4.871,2.469c-0.023,2.1-0.329,4.591-2.59,5.126c-2.724,0.646-1.979-3.108-1.833-4.97
		c-4.094,3.659-8.813,5.888-12.911,9.553c-1.896,1.697-4.673,2.678-6.416,4.313c-0.733,0.689-1.268,2.561-2.095,3.471
		c-0.802,0.879-3.297,0.688-4.448,0.838c-1.352,0.176-2.875,4.703-3.808,5.822c-1.658,1.997-4.053,4.179-4.864,6.733
		c-1.933,6.079-1.695,11.411-1.187,17.729c0.453,5.639,0.125,11.43,0.18,17.088c0.021,2.27,0.929,4.614,0.771,6.858
		c-0.188,2.687-1.793,5.236-2.04,7.938c-0.188,2.072,0.338,6.457-1.237,7.922c-2.646,2.459-4.474,4.49-6.449,7.498
		c-3.034,4.615-4.331,10.227-7.161,14.961c-2.984,4.998-6.816,9.104-11.188,12.854c-1.812,1.556-3.71,3-5.55,4.521
		c-2.443,2.018-4.943,0.525-7.905,1.061c-2.958,0.534-4.349,1.409-7.452,1.263c-2.939-0.144-4.859,0.463-4.372,4.055
		c0.398,2.961,0.768,5.361,0.328,8.3c-0.399,2.69-2.563,4.735-2.928,7.321c-0.814,5.838-0.771,11.884-3.531,17.074
		c-2.759,5.188-0.56,10.764-1.438,16.432c-0.902,5.818-3.921,9.824-5.604,15.348c-0.667,2.188-3.477,3.521-3.495,5.146
		c-0.036,3.002-1.663,5.229-2.326,8.107c-0.545,2.366-1.121,4.666-1.981,6.938c-0.43,1.143-0.733,3-1.585,3.896
		c-1.019,1.075-2.167,1.989-2.713,3.377c-1.09,2.76-2.256,4.848-3.966,7.282c-1.503,2.146-3.664,3.563-5.16,5.646
		c-1.755,2.441-3.535,4.633-5.554,6.865c-1.666,1.842-2.845,5.271-4.371,7.404c-1.585,2.223-1.946,4.563-3.529,6.313
		c-1.512,1.672-3.751,4.302-5.668,5.345c-2.313,1.257-5.486,2.305-7.264,4.282c-1.727,1.927-3.313,5.039-5.738,5.865
		c-3.02,1.03-5.494,1.787-8.649,2.1c-2.313,0.229-4.31,3.865-5.816,5.228c-1.739,1.563-4.476,3.625-6.582,4.551
		c-0.918,0.401-3.002,0.172-3.535,1.063c-0.849,1.416-1.605,2.524-2.729,3.729c-1.604,1.719-1.316,4.641-2.927,6.674
		c-0.692,0.873-1.771,1.563-2.606,2.313c-0.674,0.604-1.348,1.207-2.023,1.812c-0.53,0.479,0.078,1.271-0.282,1.711
		c-1.427,1.725-4.096,3.771-6.015,4.959c-1.755,1.086-3.12,5.02-4.404,6.727c-2.108,2.804-3.403,3.435-6.636,4.855
		c-1.044,0.459-2.582,0.322-3.712,0.436c-1.155,0.113-2.737,2.125-3.589,2.854c-4.726,4.035-4.685,9.896-7.815,14.846
		c-1.182,1.869-1.183,1.76-3.42,1.729c-0.996-0.013-1.593,1.957-2.146,2.711c-0.5,0.683-1.444,2.299-2.317,2.287
		c-1.951-0.021-3.074-0.354-4.498,1.036c-2.287,2.23-4.067,2.438-7.078,2.398c-2.561-0.029-5.065,2.447-7.063,3.703
		c-4.03,2.535-7.197,5.896-11.85,8.15c-1.572,0.764-3.413,4.373-4.634,5.813c-1.641,1.945-2.975,4.267-4.847,5.979
		c-1.588,1.451-4.538,4.049-2.875,6.678c1.72,2.72,4.404,5.836-0.5,4.722c-3.89-0.884-5.439-5.312-9.187-1.884
		c-2.65,2.427-4.124,5.601-6.343,8.438c-1.75,2.24-5.646,2.099-8.382,3.154c-3.471,1.339-5.342-0.092-6.574-3.413
		c-4.65,3.214-8.215,5.541-13.95,5.688c-0.917,0.024-1.831,0.014-2.749,0c-2.337-0.027-1.357,0.024-2.546,1.651
		c-0.329,0.448,0.225,1.019-0.248,1.502c-0.591,0.604-1.182,1.207-1.772,1.813c-0.91,0.932-0.861,2.287-0.67,3.453
		c0.092,0.563-3.257,3.947-3.802,5.094c-1.119,2.357-2.998,3.809-5.004,5.43c-1.829,1.479-3.443,2.988-4.774,4.933
		c-1.524,2.229-3.77,2.776-6.254,3.715c0.921,2.451,5.352,1.229,5.312,4.53c-0.047,3.892-2.758,3.498-5.945,3.462
		c-3.856-0.05-1.013,3.145-3.467,4.938c-0.688,0.508-3.466,1.607-3.688,2.146c-0.488,1.176-0.973,2.662-1.807,3.646
		c-1.872,2.214-3.354,3.016-3.931,6.241c-0.114,0.631-0.117,1.537-0.382,2.127c-0.155,0.345-1.354,0.266-1.481,0.61
		c-0.415,1.134-0.038,3.087-0.053,4.345c-0.047,3.862-0.834,5.681,2.544,7.91c2.188,1.444,5.903,4.26,4.215,7.403
		c-1.174-3.668-1.242-3.741-4.851-4.994c-3.759-1.305-3.58-1.575-4.494-5.436c-1.576,1.072-1.967,2.832-3.204,3.75
		c-0.44,0.326-1.4-0.205-1.948,0.152c-0.742,0.479-1.606,0.908-2.282,1.479c-0.474,0.4-3.41,3.183-3.414,3.748
		c-0.013,1.666,2.777,1.695,1.427,3.81c-1.413-1.063-2.48-2.742-4.099-1.771c-2.096,1.254-2.011,1.976-2.607,4.371
		c-0.649,2.615,6.655,5.068,5.091,8.959c-1.028-1.156-3.229-4.25-4.93-4.271c-2.734-0.033-5.706,0.598-3.277,3.959
		c0.933,1.291,4.997,2.856,2.348,4.926c-2.483,1.938-1.57,3.381-1.223,6.457c-2.208-1.813-2.06-1.885-1.671-4.725
		c0.392-2.849,1.228-3.063-1.467-5.271c-2.564-2.104-8.234,2.031-9.008,4.795c-0.631,2.248,1.992,8.813,3.136,10.506
		c0.598,0.889,3.817,4.424,3.617,5.363c-0.293,1.383-3.354,2.201-4.253,3.525c1.047-3.111,1.051-4.904-2.669-5.508
		c2.871-3.771-0.031-7.986-2.818-10.56c-1.21,1.685-1.323,1.578-2.948,2.232c-3.161,1.271-0.696,1.942-2.473,3.682
		c-0.504,0.49-1.213,1-1.617,1.578c-0.479,0.687,0.702,1.375-0.25,1.953c-1.913,1.164-0.769,2.383-2.889,3.525
		c-3.511,1.896-2.656,5.186,1.199,5.229c1.604,0.021,2.343,1.926,4.084,1.945c2.09,0.022,3.213-0.105,4.842,1.317
		c-4.299,1.179-10.385-0.494-14.38-2.146c-1.419-0.588-1.008,5.348-0.118,6.26c2.556,2.619,4.219,1.787,7.682,2.332
		c-0.889,0.973-3.746,0.797-3.912,1.426c-0.458,1.742,0.119,2.77,1.747,3.604c-1.481,3.258-6.929-6.596-8.109-8.313
		c-1.033,0.906-5.08,4.313-1.538,5.244c2.59,0.686,2.371,5.91,5.598,7.017c-3.411,1.286-6.777-8.308-9.616-5.593
		c-1.662,1.593-0.049,9.511,0.61,11.336c0.653,1.812,1.307,3.414,2.348,5.019c1.498,2.307,2.654,1.271,5.306,0.756
		c1.458-0.285,3.087-2.697,4.003-1.354c1.022,1.502,3.067,3.166,2.004,5.053c-2.17-2.021-3.658-2.778-6.698-1.858
		c-1.49,0.451-2.72,0.694-3.919,1.668c-0.523,0.428-0.92,2.885-0.295,3.1c6.052,2.104,7.779,6.679,10.305,12.242
		c-2.74,0.258-5.708-6.537-7.712-8.404c-2.906-2.707-6.281-4.498-9.148-7.168c1.035,0.017,4.145,0.627,4.271-0.494
		c0.214-1.901-0.462-2.784-1.348-4.5c-1.973-3.809-2.151-6.444-2.098-10.782c-3.311-0.324-3.062,3.75-4.707,6.149
		c-1.517,2.22-1.261,1.386-0.46,3.259c0.452,1.059,2.939,2.729,2.9,3.823c-0.046,1.269-1.738,2.078-2.689,1.908
		c-2.412-0.437-2.591-0.941-3.641,1.262c-1.44,3.021-2.81,6.052-4.135,9.123c2.058,0.687,4.655,2.49,6.313,0.287
		c0.481,1.502,3.845,7.213,5.998,4.272c0.912-1.241,1.396-2.646,2.966-2.803c1.529-0.147,3.231-0.912,3.423,1.203
		c-0.902-0.01-2.982-0.471-3.601,0.221c-0.697,0.777-2.104,3.138-2.971,3.49c-2.821,1.154-5.144-2.113-7.333-2.828
		c-7.438-2.42-7.735,7.359-6.882,11.916c-3.51-0.793-2.588,5.103-2.615,7.336c1.216-0.104,3.476,0.174,4.466-0.553
		c1.963-1.436,3.508-2.928,6.103-2.896c1.678,0.021,5.156-2.677,6.53-3.634c2.209-1.537,4.276-3.18,6.206-5.057
		c-0.042,4.775-3.734,5.328-7.462,7.697c2.246,0.098,4.488,0.191,6.733,0.293c-2.326,0.484-4.397,1.02-6.619,1.854
		c-1.892,0.709-3.617,0.021-5.409,1.08c-2.111,1.25-3.775,2.297-5.521,4c-1.281,1.252,0.251,4.984,0.333,6.539
		c2.7-0.533,5.802-1.049,8.034-2.85c1.226-0.988,0.741-1.754,2.35-2.365c1.9-0.723,3.804-1.443,5.705-2.168
		c-0.799,3.521-2.425,4.008-5.66,5.322c-2.755,1.121-8.538,2.35-9.828,5.154c-2.18,4.748,4.448,1.745,5.793,1.848
		c3.475,0.26,7.186,0.174,10.587,0.737c-3.683,0.818-6.318,1.927-6.603,6.234c-1.781-0.5-5.404-1.846-7.11-0.655
		c-2.525,1.76-4.171,1.483-6.879,2.487c-1.27,0.473-2.257,0.578-2.965,1.727c-0.943,1.527-0.879,2.579-2.583,1.779
		c-2.625-1.229-5.074-0.815-7.797-0.074c-2.779,0.759-3.355,4.711-3.654,7.023c-0.545,4.227,0.679,4.929,2.137,8.511
		c0.85,2.093,0.019,5.957,0.93,7.489c1.372,2.313,4.664-0.922,6.552-2.234c-0.809,3.134,2.244,1.976,2.632-0.356
		c0.353-2.125,2.254-4.226,3.245-6.279c0.777-1.611,0.883-3.463,1.633-5.059c1.038-2.207,1.466-2.255,3.83-3.322
		c-2.02,2.803-2.774,6.574-3.91,9.85c3.776,1.34,5.921,0.313,8.863-1.787c1.535,2.928-7.857,4.627-9.875,6.004
		c-2.542,1.732-1.517,3.039-1.849,5.853c-0.252,2.145-1.095,4.26-1.761,6.296c1.195-0.813,2.389-1.63,3.583-2.442
		c1.081-0.735,2.171,0.668,2.97,0.207c0.702-0.401,1.093-2.676,2.132-3.436c1.031-0.754,1.896-1.743,2.808-2.635
		c1.434-1.396,1.887-1.276,1.914-3.492c0.015-1.258,0.72-2.09,1.835-2.418c4.465-1.313,5.712-4.219,9.228-7.17
		c-0.946,1.968-1.694,4.563-3.023,6.279c-0.795,1.028-0.698,1.631-2.001,1.771c-0.836,0.091-3.614-0.082-3.927,1.104
		c-0.447,1.698-1.077,1.918-0.253,3.473c0.651,1.229,1.282,2.438-0.49,2.414c0.165,0.002-3.588,4.789-4.544,5.566
		c-1.75,1.422-1.754,4.463-3.584,4.961c-3.221,0.879-0.552,3.274,0.609,5.063c1.648,2.536,2.445,2.028,5.123,2.063
		c2.611,0.032,4.331,1.051,6.831,1.559c-0.75-3.063,6.456-1.813,8.409-1.793c2.732,0.035,5.744,0.496,8.443,0.945
		c3.968,0.659,7.522,1.146,11.562,1.192c2.186,0.025,2.915,0.279,4.505-1.102c1.319-1.146,3.865-1.15,5.556-1.039
		c4.908,0.334,3.154-1.609,3.556-5.188c0.427-3.796,3.913-5.283,7.105-6.4c2.449-0.855,6.502,1.359,8.867,2.223
		c1.623,0.59,1.59,2.266,3.271,1.174c1.514-0.983,2.176-2.641,3.104-4.174c0.833,1.637-1.844,6.495-1.124,7.051
		c2.075,1.597,4.072,3.047,6.175,4.569c4.076,2.95-0.73,3.808-1.115,6.28c-0.335,2.154,1.646,2.682,3.075,3.817
		c0.874,0.697,4.811,4.392,6.147,3.912c0.721-0.262,0.78-2.487,1.507-2.723c0.915-0.291,2.577,2.066,3.555,1.938
		c2.202-0.286,2.85-3.125,5.798-3.088c2.344,0.025,4.538,1.607,6.629,2.605c-0.39-3.775,1.049-6.631,5.468-5.346
		c4.731,1.379,6.837,4.252,9.438,8.258c1.078,1.662,4.203,10.607,5.947,5.039c0.18-0.573-0.075-1.266,0.121-1.801
		c0.286-0.781,1.234-0.438,1.336-1.47c0.22-2.239,0.438-4.479,0.658-6.72c0.78,2.923,1.212,8.466,4.3,9.946
		c-1.898,1.854-3.447,3.263-5.74,4.563c2.814,1.079,9.479,4.707,11.155,0.136c0.469-1.275-0.92-4.645,0.845-4.621
		c2.354,0.029,4.652,0.088,6.996,0.297c-1.078,1.943-3.833,7.147,0.855,7.166c2.744,0.011,4.084-0.518,6.371-2.037
		c1.53-1.018,1.173-3.954,2.03-4.596c0.788-0.59,3.146-0.344,4.238-0.545c3.238-0.59,1.812,3.254,1.431,5.043
		c-0.625,2.943,4.663,2.691,6.016,5.305c0.95,1.837,1.368,3.15,1.75,5.191c0.176,0.934,3.956,0.51,4.842,0.461
		c2.824-0.154,7.129,1.188,9.614,0.346c1.972-0.668,8.885-0.98,8.366-3.555c-0.284-1.406-0.595-3.229,1.272-3.888
		c1.283-0.45,0.917,4.72,0.827,5.373c1.357,2.661,4.857-0.373,6.105-1.673c3.054-3.183,3.181-0.886,6.981-1.113
		c2.311-0.146,5.458-2.188,7.491-3.125c1.123-0.521,0.772-1.298,0.787-2.477c0.021-1.769,0.943-1.621,2.553-2.271
		c-0.388-0.097-0.958-0.15-1.269-0.425c0.379,0.332,3.585-0.229,4.65-0.136c2.396,0.216,2.964,0.771,4.806,2.343
		c-0.316-4.475,2.12-4.123,5.131-6.463c1.265-0.981,2.418-1.895,2.938-3.393c0.909-2.619,0.244-2.241-2.224-3.336
		c1.985-1.197,14.438-0.651,9.116-6.889c-5.076-5.949,2.914-7.939,6.47-11.025c2.06-1.787,2.854-3.871,5.226-5.41
		c2.354-1.525,3.644-3.551,5.694-5.405c4.206-3.81,10.686-7.232,11.271-13.332c0.538-5.627,1.268-9.862,4.875-14.554
		c2.071-2.691,3.313-4.186,6.203-5.9c1.148-0.686,2.391-0.604,3.722-0.729c1.671-0.154,3.063-1.078,4.567-1.807
		c4.836-2.349,11.3-1.283,15.899-3.525c0.625-0.305,0.452-1.014,1.25-1.067c0.563-0.041,1.618,0.087,2.133-0.15
		c0.718-0.33,2.421-1.3,2.232-2.095c-0.295-1.246-1.468-1.889-1.749-2.951c-0.34-1.286,0.482-3.222,0.896-4.411
		c0.221-0.627,0.437-1.257,0.654-1.888c-1.313,1.152-2.347,1.978-3.915,2.732c-0.755,0.367-1.646-0.018-2.464,0.313
		c-0.393,0.157-0.461,2.355-0.844,3.011c-2.286,3.887-5.692,4.672-9.759,5.523c0.568-2.463,3.271-2.172,4.468-3.943
		c0.936-1.391-0.038-3.035,2.352-2.918c-3.632-1.199,1.644-3.146,3.265-3.771c2.989-1.152,3.573-3.23,0.034-3.271
		c-2.974-0.037-2.748-2.859-5.974-2.33c-1.856,0.306,2.616-4.855,2.64-4.938c1.904-2.364,2.399-3.271,2.813-6.28
		c-4.213,0.146,1.835-2.636,2.979-3.095c-0.14,0.058-0.273,0.123-0.416,0.179c2.152-1.445,2.21-3.029,2.697-5.363
		c0.543-2.603,1.086-2.762,2.769-4.779c1.383-1.657,2.507-3.623,3.843-5.342c0.298-0.383-1.532-2.422-1.274-3.562
		c0.812-3.563,4.271-5.844,4.311-9.038c0.014-1.107-2.444-2.232-2.902-3.589c-0.438-1.291,0.051-3.057,0.268-4.311
		c0.685-3.957,2.232-6.84,3.418-10.621c0.506-1.609,1.179-3.229,2.237-4.576c0.873-1.106,3.317-2.313,3.446-3.752
		C345.848,1191.187,354.033,1184.838,357.282,1179.662"/>
	<path fill="#333333" d="M113.288,1387.613c-1.753-0.293-2.887-0.428-4.622-0.102c-0.804,0.146-1.317,3.035-1.456,3.928
		c-0.273,1.768-0.731,3.566-0.491,5.363c0.265,1.979,2.661,4.106,3.631,5.93c1.654,3.105,1.979,6.701,0.947,10.037
		c-0.568,1.836-1.709,1.85-3.201,2.941c-1.134,0.823-2.667-1.035-3.335-2.104c-0.031,2.482,0.628,4.486,2.075,6.566
		c0.823,1.184,2.91,3.396,1.434,4.26c-0.971,0.563-2.544,0.18-3.646,0.33c-3.212,0.436-4.171,2.088-5.493,4.858
		c-0.488,1.025,0.594,1.688,0.98,2.66c0.52,1.31,0.599,2.744,0.478,4.111c-0.14,1.561-0.64,1.979-1.665,3.203
		c-0.638,0.762-2.222,1.045-2.582,1.879c-0.308,0.713-0.615,1.426-0.923,2.141c-0.195,0.449-1.104-0.281-1.556,0.379
		c-1.341,1.961-1.312,4.039-1.34,6.299c-0.016,1.324,6.437,2.41,7.343,1.986c0.639-0.303,2.11-3.381,1.604-3.896
		c-0.936-0.964-2.708-1.953-1.935-3.478c1.147,1.322,1.207,2.189,2.762,1.248c1.747-1.063,0.51-1.875,1.053-3.309
		c0.471-1.244,3.164-2.467,3.964-3.563c0.954-1.301,2.499-1.133,4.095-1.393c-0.056,0.475,0.268,1.004,0.192,1.479
		c2.354-0.762,10.346,2.099,11.689-0.932c0.626-1.416,1.815-2.326,2.367-3.74c0.717-1.84,3.877-1.991,5.611-2.668
		c0.732-0.282,4.868-0.896,5.091-1.27c0.619-1.031,4.417-0.236,5.705-0.791c1.701-0.73,1.249-1.728,1.27-3.459
		c0.005-0.396,3.427-0.172,4.215-0.392c-0.831-0.485-2.316-0.987-2.927-1.719c-1.499-1.795-0.144-1.479,1.703-1.453
		c-1.276-2.393,2.999-2.682,0.566-5.174c-1.21-1.24-2.786-3.482-4.643-3.506c-2.137-0.025-2.633,1.738-4.702,2.402
		c-0.302,0.096-1.98-0.338-2.084-0.595c-0.59-1.452,2.567-1.756,3.183-2.065c-1.445-0.662-2.62-1.012-4.181-1.322
		c-1.598-0.32-2.392-1.984-3.773-2.354c-1.622-0.433-2.914,1.325-3.95,2.27c-0.416,0.379-1.418,2.572-1.733,2.447
		c-0.857-0.344-1.714-0.688-2.572-1.025c1.175-1.338,3.161-2.41,3.729-4.049c0.736-2.121,0.59-3.924,1.656-5.99
		c1.485,1.904,2.13,3.871,4.794,3.851c-0.244-1.539,6.176-0.771,7.214-0.755c0.949,0.013,0.055-4.327-0.417-4.219
		c-2.813,0.668-3.021-0.592-4.827-2.26c-1.707-1.572-3.426-3.104-5.193-4.6c-1.078-0.912-1.182-1.188-1.73-2.729
		c-0.223-0.631,0.217-2.434,0.013-2.662c-1.404-1.565-2.81-3.022-4.35-4.459c-0.87-0.811-4.191-1.42-5.426-2.008
		C115.543,1383.035,114.344,1386.322,113.288,1387.613"/>
</g>
</svg>
