<?xml version="1.0" encoding="utf-8"?>
<!-- Generator: Adobe Illustrator 15.0.2, SVG Export Plug-In . SVG Version: 6.00 Build 0)  -->
<!DOCTYPE svg PUBLIC "-//W3C//DTD SVG 1.1//EN" "http://www.w3.org/Graphics/SVG/1.1/DTD/svg11.dtd">
<svg version="1.1" id="Layer_1" xmlns="http://www.w3.org/2000/svg" xmlns:xlink="http://www.w3.org/1999/xlink" x="0px" y="0px"
	 width="480.067px" height="219.28px" viewBox="0 203.462 480.067 219.28" enable-background="new 0 203.462 480.067 219.28"
	 xml:space="preserve">
<g>
	<title>Layer 1</title>
	<g id="svg_1">
		<path id="svg_2" fill="#00A1C3" d="M331.634,286.631L331.634,286.631L331.634,286.631L331.634,286.631L331.634,286.631
			L331.634,286.631L331.634,286.631L331.634,286.631c0.056,0.148-0.197,0.184-0.287,0.267c-3.117-4.815,3.168-6.663,8.063-7.568
			c21.045-0.196,29.428,25.845,29.246,40.991c-0.61,50.561-53.258,87.687-99.857,103.422l208.631-0.694
			c12.379-48.407-39.887-148.902-93.998-165.958c-18.229-5.746-50.077-5.072-57.176,15.975c-1.48,4.387-1.21,12.21,4.799,13.771"/>
	</g>
	<g id="svg_3">
		<path id="svg_4" fill="#00A1C3" d="M200.634,286.631L200.634,286.631L200.634,286.631L200.634,286.631L200.634,286.631
			L200.634,286.631L200.634,286.631L200.634,286.631c0.056,0.148-0.197,0.184-0.287,0.267c-3.117-4.815,3.169-6.663,8.063-7.568
			c21.046-0.196,29.429,25.845,29.246,40.991c-0.61,50.561-53.257,87.687-99.857,103.422l208.631-0.694
			c12.379-48.407-39.887-148.902-93.998-165.958c-18.229-5.746-50.077-5.072-57.176,15.975c-1.48,4.387-1.209,12.21,4.799,13.771"/>
	</g>
	<g id="layer1">
		<path id="svg_6" fill="#00A1C3" d="M63.634,286.631L63.634,286.631L63.634,286.631L63.634,286.631L63.634,286.631L63.634,286.631
			L63.634,286.631L63.634,286.631c0.056,0.148-0.197,0.184-0.287,0.267c-3.117-4.815,3.169-6.663,8.063-7.568
			c21.046-0.196,29.429,25.845,29.246,40.991c-0.61,50.561-53.257,87.687-99.857,103.422l208.631-0.694
			c12.38-48.407-39.886-148.902-93.997-165.958c-18.229-5.746-50.078-5.072-57.177,15.975c-1.48,4.387-1.209,12.21,4.799,13.771"/>
	</g>
</g>
</svg>
